HIERARCHY
ROOT Hips
{
	OFFSET 0.00000 0.00000 0.00000
	CHANNELS 6 Xposition Yposition Zposition Zrotation Yrotation Xrotation 
	JOINT LHipJoint
	{
		OFFSET 0 0 0
		CHANNELS 3 Zrotation Yrotation Xrotation
		JOINT LeftUpLeg
		{
			OFFSET 1.57358 -1.76629 0.73362
			CHANNELS 3 Zrotation Yrotation Xrotation
			JOINT LeftLeg
			{
				OFFSET 2.40600 -6.61045 0.00000
				CHANNELS 3 Zrotation Yrotation Xrotation
				JOINT LeftFoot
				{
					OFFSET 2.66168 -7.31291 0.00000
					CHANNELS 3 Zrotation Yrotation Xrotation
					JOINT LeftToeBase
					{
						OFFSET 0.20870 -0.57341 2.12506
						CHANNELS 3 Zrotation Yrotation Xrotation
						End Site
						{
							OFFSET 0.00000 -0.00000 1.10557
						}
					}
				}
			}
		}
	}
	JOINT RHipJoint
	{
		OFFSET 0 0 0
		CHANNELS 3 Zrotation Yrotation Xrotation
		JOINT RightUpLeg
		{
			OFFSET -1.49299 -1.76629 0.73362
			CHANNELS 3 Zrotation Yrotation Xrotation
			JOINT RightLeg
			{
				OFFSET -2.43663 -6.69460 0.00000
				CHANNELS 3 Zrotation Yrotation Xrotation
				JOINT RightFoot
				{
					OFFSET -2.62959 -7.22474 0.00000
					CHANNELS 3 Zrotation Yrotation Xrotation
					JOINT RightToeBase
					{
						OFFSET -0.25784 -0.70841 2.21862
						CHANNELS 3 Zrotation Yrotation Xrotation
						End Site
						{
							OFFSET -0.00000 -0.00000 1.16452
						}
					}
				}
			}
		}
	}
	JOINT LowerBack
	{
		OFFSET 0 0 0
		CHANNELS 3 Zrotation Yrotation Xrotation
		JOINT Spine
		{
			OFFSET -0.00034 2.12399 -0.25450
			CHANNELS 3 Zrotation Yrotation Xrotation
			JOINT Spine1
			{
				OFFSET 0.05594 2.14379 -0.03318
				CHANNELS 3 Zrotation Yrotation Xrotation
				JOINT Neck
				{
					OFFSET 0 0 0
					CHANNELS 3 Zrotation Yrotation Xrotation
					JOINT Neck1
					{
						OFFSET -0.09835 1.62725 0.24211
						CHANNELS 3 Zrotation Yrotation Xrotation
						JOINT Head
						{
							OFFSET 0.10849 1.66041 -0.22648
							CHANNELS 3 Zrotation Yrotation Xrotation
							End Site
							{
								OFFSET 0.04385 1.68267 -0.10541
							}
						}
					}
				}
				JOINT LeftShoulder
				{
					OFFSET 0 0 0
					CHANNELS 3 Zrotation Yrotation Xrotation
					JOINT LeftArm
					{
						OFFSET 3.29108 0.79398 -0.68179
						CHANNELS 3 Zrotation Yrotation Xrotation
						JOINT LeftForeArm
						{
							OFFSET 5.15310 -0.00000 -0.00000
							CHANNELS 3 Zrotation Yrotation Xrotation
							JOINT LeftHand
							{
								OFFSET 3.75138 -0.00000 -0.00000
								CHANNELS 3 Zrotation Yrotation Xrotation
								JOINT LeftFingerBase
								{
									OFFSET 0 0 0
									CHANNELS 3 Zrotation Yrotation Xrotation
									JOINT LeftHandIndex1
									{
										OFFSET 0.52917 -0.00000 0.00000
										CHANNELS 3 Zrotation Yrotation Xrotation
										End Site
										{
											OFFSET 0.42663 -0.00000 0.00000
										}
									}
								}
								JOINT LThumb
								{
									OFFSET 0 0 0
									CHANNELS 3 Zrotation Yrotation Xrotation
									End Site
									{
										OFFSET 0.43315 -0.00000 0.43315
									}
								}
							}
						}
					}
				}
				JOINT RightShoulder
				{
					OFFSET 0 0 0
					CHANNELS 3 Zrotation Yrotation Xrotation
					JOINT RightArm
					{
						OFFSET -3.07414 1.06285 -0.44338
						CHANNELS 3 Zrotation Yrotation Xrotation
						JOINT RightForeArm
						{
							OFFSET -5.29613 -0.00000 0.00000
							CHANNELS 3 Zrotation Yrotation Xrotation
							JOINT RightHand
							{
								OFFSET -3.76144 -0.00000 -0.00000
								CHANNELS 3 Zrotation Yrotation Xrotation
								JOINT RightFingerBase
								{
									OFFSET 0 0 0
									CHANNELS 3 Zrotation Yrotation Xrotation
									JOINT RightHandIndex1
									{
										OFFSET -0.74732 -0.00000 0.00000
										CHANNELS 3 Zrotation Yrotation Xrotation
										End Site
										{
											OFFSET -0.60251 -0.00000 0.00000
										}
									}
								}
								JOINT RThumb
								{
									OFFSET 0 0 0
									CHANNELS 3 Zrotation Yrotation Xrotation
									End Site
									{
										OFFSET -0.61171 -0.00000 0.61171
									}
								}
							}
						}
					}
				}
			}
		}
	}
}
MOTION
Frames: 10
Frame Time: .0083333
0.9077 17.4825 -2.7566 -3.7094 -1.9032 -3.4332 0.0000 0.0000 0.0000 -12.6435 -9.1455 -25.5499 5.3304 13.7465 42.2313 0.0459 4.2492 -7.6032 0.0044 0.4295 1.1801 0.0000 0.0000 0.0000 30.7550 7.8814 -0.2303 -1.6919 -8.1924 23.3001 -0.4273 -3.9998 -14.4694 -0.0279 -1.0786 2.9651 2.9047 1.0098 7.0681 2.6902 1.6454 1.1365 0.9922 0.8012 -2.7865 -10.0360 -3.2317 -16.1408 3.6406 -2.7106 22.0849 2.5905 -1.6841 9.8905 -0.0000 0.0000 0.0000 -92.8143 2.1006 8.4324 12.7054 -20.8540 -2.3474 -0.0000 -0.0000 11.2913 18.4602 26.0855 8.3506 -7.1250 0.0000 -0.0000 -12.5740 56.8353 -3.6872 -0.0000 0.0000 0.0000 84.2147 5.9874 16.5057 -17.0650 26.9434 -4.1168 0.0000 0.0000 5.4441 -18.7456 13.2869 -4.4598 7.1250 -0.0000 -0.0000 5.9151 -16.0265 4.0742
0.9098 17.4717 -2.6440 -3.5688 -2.0672 -3.2411 0.0000 0.0000 0.0000 -12.7383 -9.8480 -25.1816 4.7226 13.0644 39.6101 0.0098 5.0963 -7.5851 0.0076 0.5630 1.5471 0.0000 0.0000 0.0000 30.6000 7.7734 -0.0039 -1.6890 -8.1859 23.2801 -0.4664 -3.7698 -14.8353 -0.0257 -1.0353 2.8461 2.7479 1.0704 7.1448 2.6169 1.7280 0.8280 0.9921 0.8390 -3.1507 -10.0195 -3.1031 -15.6452 3.6443 -2.5931 22.1955 2.6094 -1.6345 9.8272 0.0000 0.0000 0.0000 -92.8353 2.7971 8.3102 12.5751 -20.6615 -2.3012 -0.0000 -0.0000 11.3977 17.6915 27.5507 8.3927 -7.1250 0.0000 -0.0000 -14.1977 58.1169 -4.6173 0.0000 0.0000 0.0000 84.2198 5.6938 16.9715 -17.5142 27.5306 -4.3223 0.0000 0.0000 4.9987 -18.1567 12.8288 -4.1647 7.1250 -0.0000 -0.0000 6.3120 -16.5552 4.2781
0.9142 17.4618 -2.5285 -3.7114 -2.2659 -2.9555 0.0000 0.0000 0.0000 -12.4865 -10.5116 -24.9359 4.1496 12.3569 37.0064 -0.0033 5.6429 -7.9530 0.0108 -0.6715 -1.8453 0.0000 0.0000 0.0000 30.7500 7.7249 0.1638 -1.6826 -8.1711 23.2349 -0.4944 -3.6181 -15.1008 -0.0173 -0.8498 2.3356 2.8493 1.1375 6.9103 2.6853 1.8176 0.7911 1.0019 0.8834 -3.0568 -10.0502 -3.0642 -15.5959 3.5328 -2.5072 22.0981 2.5855 -1.6081 9.7768 -0.0000 -0.0000 0.0000 -92.9233 2.5957 7.7386 12.1343 -20.0057 -2.1480 -0.0000 -0.0000 12.2193 17.2246 26.9768 8.0053 -7.1250 0.0000 -0.0000 -14.3561 57.4526 -4.4392 -0.0000 -0.0000 0.0000 84.0091 5.8923 17.5472 -17.9341 28.0726 -4.5182 0.0000 0.0000 4.3800 -18.0108 12.2211 -3.9372 7.1250 -0.0000 -0.0000 6.4042 -17.1990 4.2509
0.9160 17.4518 -2.4143 -3.9748 -2.5245 -2.8335 0.0000 0.0000 0.0000 -12.0434 -11.1639 -24.5381 3.6194 11.6359 34.4559 -0.0288 6.0445 -7.7764 0.0267 -1.0555 -2.9014 0.0000 0.0000 0.0000 31.0751 7.6733 0.5328 -1.6681 -8.1375 23.1325 -0.5126 -3.5093 -15.2632 -0.0194 -0.8990 2.4709 3.0945 1.2560 6.7410 2.7695 1.9812 0.9431 0.9422 0.9657 -2.7993 -10.0056 -3.1488 -15.9391 3.3543 -2.5534 22.0648 2.5062 -1.6424 9.8311 0.0000 0.0000 0.0000 -92.9581 2.0963 7.3790 11.6018 -19.2047 -1.9693 -0.0000 -0.0000 12.6598 16.7945 27.1317 7.8368 -7.1250 0.0000 -0.0000 -14.8961 57.5119 -4.6326 0.0000 0.0000 0.0000 83.9128 6.3866 17.7486 -18.2725 28.5046 -4.6785 0.0000 0.0000 4.1050 -18.3463 12.1971 -4.0077 7.1250 -0.0000 -0.0000 6.1704 -17.1968 4.0942
0.9199 17.4521 -2.2924 -3.8094 -2.6821 -2.7052 0.0000 0.0000 0.0000 -12.1009 -11.9348 -24.0073 3.1387 10.9162 31.9979 -0.0481 6.3670 -7.6851 0.0338 -1.1861 -3.2611 0.0000 0.0000 0.0000 30.8572 7.4439 0.8867 -1.6402 -8.0725 22.9344 -0.5452 -3.2222 -15.4940 -0.0276 -1.0722 2.9476 2.9146 1.3221 6.5009 2.7502 2.0428 0.9658 1.0236 0.9998 -2.6468 -10.1006 -3.1587 -16.1206 3.3261 -2.5145 22.2577 2.5180 -1.6386 9.9332 -0.0000 -0.0000 0.0000 -93.1025 2.3393 7.3136 11.4910 -19.0369 -1.9330 -0.0000 -0.0000 12.5574 16.4050 27.3737 7.7091 -7.1250 0.0000 -0.0000 -15.4465 57.6638 -4.8661 -0.0000 -0.0000 0.0000 83.7713 6.5634 18.1456 -18.6390 28.9676 -4.8548 0.0000 0.0000 3.6711 -18.8153 13.0510 -4.3998 7.1250 -0.0000 -0.0000 5.8615 -16.2664 4.0063
0.9233 17.4530 -2.1708 -3.6937 -2.6751 -2.5062 0.0000 0.0000 0.0000 -12.1135 -12.6400 -23.7082 2.7102 10.2105 29.6612 -0.0562 6.4612 -7.5795 0.0515 -1.4640 -4.0264 0.0000 0.0000 0.0000 30.6978 7.2493 1.1954 -1.6086 -7.9981 22.7084 -0.5817 -3.0556 -15.8412 -0.0297 -1.1124 3.0581 2.8028 1.3117 6.1114 2.7204 1.9992 1.0290 1.0692 0.9821 -2.3668 -10.1443 -3.1220 -16.4493 3.3293 -2.4148 22.5199 2.5410 -1.5995 10.0826 0.0000 0.0000 0.0000 -93.2310 2.6707 7.3671 11.6488 -19.2759 -1.9848 -0.0000 -0.0000 12.5863 16.4875 26.4354 7.5064 -7.1250 0.0000 -0.0000 -14.8177 56.7667 -4.3391 0.0000 0.0000 0.0000 83.6730 6.7955 18.5298 -19.0532 29.4847 -5.0570 0.0000 0.0000 3.3729 -19.1302 13.4959 -4.6281 7.1250 -0.0000 -0.0000 5.6560 -15.7728 3.9250
0.9266 17.4488 -2.0465 -3.6971 -2.7002 -2.3441 0.0000 0.0000 0.0000 -11.9911 -13.2778 -23.4582 2.3379 9.5370 27.4901 -0.0554 6.4634 -7.6110 0.0557 -1.5232 -4.1896 0.0000 0.0000 0.0000 30.6801 7.0507 1.5483 -1.5848 -7.9417 22.5371 -0.6105 -3.0161 -16.1614 -0.0189 -0.8882 2.4411 2.8288 1.3257 5.8023 2.6986 2.0019 1.0815 1.0403 0.9856 -2.1381 -10.0272 -3.1295 -16.7073 3.2173 -2.3996 22.5900 2.4829 -1.5953 10.1525 -0.0000 -0.0000 0.0000 -93.2265 2.6843 7.2001 11.4915 -19.0377 -1.9332 -0.0000 -0.0000 12.9953 17.0698 24.2626 7.1915 -7.1250 0.0000 -0.0000 -13.0985 54.7435 -3.1757 -0.0000 -0.0000 0.0000 83.6340 7.0488 18.8687 -19.4674 29.9953 -5.2625 0.0000 0.0000 2.9386 -19.2476 13.2810 -4.5861 7.1250 -0.0000 -0.0000 5.5693 -15.9866 3.8385
0.9323 17.4406 -1.9213 -3.6916 -2.7354 -2.1958 0.0000 0.0000 0.0000 -11.8830 -13.9226 -23.2141 2.0372 8.9431 25.6176 -0.0456 6.3850 -7.7990 0.0569 -1.5390 -4.2332 0.0000 0.0000 0.0000 30.6157 6.6947 1.8539 -1.5631 -7.8896 22.3794 -0.6470 -2.7882 -16.4583 -0.0133 -0.7448 2.0469 2.8235 1.3539 5.7388 2.6783 2.0429 0.9064 1.0185 1.0040 -2.2826 -9.9500 -3.0673 -16.5549 3.2181 -2.3517 22.5976 2.4781 -1.5677 10.1210 0.0000 0.0000 0.0000 -93.2275 2.7551 6.5856 11.0839 -18.4167 -1.8023 -0.0000 -0.0000 13.8645 16.9112 23.7760 6.9882 -7.1250 0.0000 -0.0000 -13.0307 54.2303 -2.9947 0.0000 0.0000 0.0000 83.5742 7.0108 19.2070 -19.7745 30.3697 -5.4169 0.0000 0.0000 2.4560 -19.0745 13.0658 -4.4698 7.1250 -0.0000 -0.0000 5.6830 -16.2276 3.8878
0.9400 17.4308 -1.7991 -3.6140 -2.7620 -1.9893 0.0000 0.0000 0.0000 -11.8368 -14.6622 -23.1521 1.8054 8.4484 24.0844 -0.0293 6.2823 -8.1388 0.0843 -1.8727 -5.1539 0.0000 0.0000 0.0000 30.4670 6.4711 2.1212 -1.5365 -7.8254 22.1851 -0.6874 -2.5732 -16.8014 -0.0174 -0.8515 2.3403 2.7269 1.3760 5.6045 2.6658 2.0663 0.7481 1.0591 1.0151 -2.3735 -9.9541 -2.9276 -16.1855 3.2776 -2.2112 22.4650 2.5199 -1.4958 9.9932 -0.0000 0.0000 0.0000 -93.2782 3.0526 6.8073 10.9821 -18.2609 -1.7703 -0.0000 -0.0000 13.7735 15.7648 25.3619 6.8948 -7.1250 0.0000 -0.0000 -14.9765 55.5702 -3.9493 -0.0000 0.0000 0.0000 83.4672 7.1031 19.5940 -19.9859 30.6253 -5.5242 0.0000 0.0000 2.0116 -19.1011 13.1569 -4.5070 7.1250 -0.0000 -0.0000 5.6669 -16.1299 3.8888
0.9457 17.4204 -1.6807 -3.7942 -2.8415 -1.7485 0.0000 0.0000 0.0000 -11.4435 -15.3368 -23.3282 1.6374 8.0660 22.9147 0.0102 5.8756 -8.6664 0.0781 -1.8032 -4.9621 0.0000 0.0000 0.0000 30.6670 6.4550 2.4286 -1.5085 -7.7571 21.9787 -0.7085 -2.6279 -17.0642 -0.0163 -0.8255 2.2689 2.8420 1.4005 5.3144 2.7375 2.0931 0.7635 1.0744 1.0295 -2.1940 -9.9814 -2.8878 -15.9820 3.2873 -2.1724 22.1840 2.5308 -1.4738 9.8520 0.0000 -0.0000 0.0000 -93.3688 3.0758 6.7579 10.9064 -18.1446 -1.7467 -0.0000 -0.0000 13.9886 15.2762 26.1242 6.8575 -7.1250 0.0000 -0.0000 -15.8903 56.2141 -4.4495 0.0000 -0.0000 0.0000 83.3968 7.4010 19.9016 -20.2876 30.9873 -5.6787 0.0000 0.0000 1.6557 -18.9983 13.2424 -4.5095 7.1250 -0.0000 -0.0000 5.7400 -16.0498 3.9494
